<svg width="328" height="148" viewBox="0 0 328 148" fill="none" xmlns="http://www.w3.org/2000/svg">
<mask id="path-1-inside-1_1_509" fill="white">
<path fill-rule="evenodd" clip-rule="evenodd" d="M10 0C4.47715 0 0 4.47715 0 10V88C0 82.4771 4.47715 78 10 78H318C323.523 78 328 82.4771 328 88V10C328 4.47715 323.523 0 318 0H10ZM328 100C328 105.523 323.523 110 318 110H9.99999C4.47714 110 0 105.523 0 100V138C0 143.523 4.47714 148 9.99999 148H318C323.523 148 328 143.523 328 138V100Z"/>
</mask>
<path fill-rule="evenodd" clip-rule="evenodd" d="M10 0C4.47715 0 0 4.47715 0 10V88C0 82.4771 4.47715 78 10 78H318C323.523 78 328 82.4771 328 88V10C328 4.47715 323.523 0 318 0H10ZM328 100C328 105.523 323.523 110 318 110H9.99999C4.47714 110 0 105.523 0 100V138C0 143.523 4.47714 148 9.99999 148H318C323.523 148 328 143.523 328 138V100Z" fill="#457B9D"/>
<path d="M1 10C1 5.02943 5.02944 1 10 1V-1C3.92487 -1 -1 3.92486 -1 10H1ZM1 88V10H-1V88H1ZM1 88C1 83.0294 5.02944 79 10 79V77C3.92487 77 -1 81.9249 -1 88H1ZM10 79H318V77H10V79ZM318 79C322.971 79 327 83.0294 327 88H329C329 81.9249 324.075 77 318 77V79ZM327 10V88H329V10H327ZM318 1C322.971 1 327 5.02944 327 10H329C329 3.92487 324.075 -1 318 -1V1ZM10 1H318V-1H10V1ZM327 100C327 104.971 322.971 109 318 109V111C324.075 111 329 106.075 329 100H327ZM318 109H9.99999V111H318V109ZM9.99999 109C5.02943 109 1 104.971 1 100H-1C-1 106.075 3.92486 111 9.99999 111V109ZM1 138V100H-1V138H1ZM9.99999 147C5.02943 147 1 142.971 1 138H-1C-1 144.075 3.92486 149 9.99999 149V147ZM318 147H9.99999V149H318V147ZM327 138C327 142.971 322.971 147 318 147V149C324.075 149 329 144.075 329 138H327ZM327 100V138H329V100H327Z" fill="#0A5F8E" fill-opacity="0.14" mask="url(#path-1-inside-1_1_509)"/>
</svg>
