<svg width="20" height="20" viewBox="0 0 20 20" fill="none" xmlns="http://www.w3.org/2000/svg">
<path d="M10 10C10.4583 10 10.8508 9.83667 11.1775 9.51C11.5036 9.18389 11.6667 8.79167 11.6667 8.33333C11.6667 7.875 11.5036 7.4825 11.1775 7.15583C10.8508 6.82972 10.4583 6.66667 10 6.66667C9.54167 6.66667 9.14945 6.82972 8.82333 7.15583C8.49667 7.4825 8.33333 7.875 8.33333 8.33333C8.33333 8.79167 8.49667 9.18389 8.82333 9.51C9.14945 9.83667 9.54167 10 10 10ZM10 18.0208C9.88889 18.0208 9.77778 18 9.66667 17.9583C9.55556 17.9167 9.45833 17.8611 9.375 17.7917C7.34722 16 5.83333 14.3369 4.83333 12.8025C3.83333 11.2675 3.33333 9.83333 3.33333 8.5C3.33333 6.41667 4.00361 4.75694 5.34417 3.52083C6.68417 2.28472 8.23611 1.66667 10 1.66667C11.7639 1.66667 13.3158 2.28472 14.6558 3.52083C15.9964 4.75694 16.6667 6.41667 16.6667 8.5C16.6667 9.83333 16.1667 11.2675 15.1667 12.8025C14.1667 14.3369 12.6528 16 10.625 17.7917C10.5417 17.8611 10.4444 17.9167 10.3333 17.9583C10.2222 18 10.1111 18.0208 10 18.0208Z" fill="#656161"/>
</svg>
