<svg width="24" height="24" viewBox="0 0 24 24" fill="none" xmlns="http://www.w3.org/2000/svg">
<path d="M8.55525 5.43898C7.64325 7.44973 6.5235 9.91798 5.6835 10.899C5.51925 10.5172 5.53725 9.87898 5.34975 8.32048C5.18025 6.91273 4.01925 6.77923 3.52125 6.87898C2.42025 7.10848 2.08425 8.22523 2.121 8.63698C2.1795 9.29323 2.1825 9.27073 2.3025 10.857C2.47875 13.1775 1.5825 14.9295 1.5 16.9162C1.5 20.6602 4.78125 22.5 7.0785 22.5C8.916 22.5 10.7535 21.324 11.4435 20.736L14.889 17.5897C15.3105 17.262 16.353 16.1797 16.8105 15.5572C18.0577 13.86 16.254 12.6915 15.24 12.9847C15.3202 12.9232 15.801 12.1425 16.0312 11.76C16.65 10.5172 16.0312 9.68998 15.5737 9.46273C14.5372 8.94748 13.7752 9.52724 13.5352 9.84373C13.6267 9.68774 13.9147 9.05624 14.379 7.89824C14.8432 6.74099 14.0955 6.02549 13.6642 5.81248C12.7267 5.37898 11.8357 5.92948 11.613 6.42223C11.5042 6.66223 10.9155 7.95074 10.6605 8.51924C10.8532 8.04824 11.2027 7.11224 11.3265 6.67949C11.5725 5.65949 10.9807 4.96123 10.6057 4.78123C10.0837 4.53148 8.99625 4.46623 8.56575 5.41423L8.55525 5.43898Z" fill="#FFC83D"/>
<path d="M10.6635 5.18626C10.584 4.93126 10.4753 4.77676 10.3928 4.70026C10.4708 4.72276 10.5428 4.75126 10.6058 4.78126C10.9808 4.96126 11.5725 5.66026 11.3258 6.67951C11.2028 7.11226 10.8533 8.04826 10.6598 8.51926L10.7528 8.31376C10.3298 9.28501 9.8025 10.3313 9.405 11.0063C9.35458 11.092 9.27216 11.1542 9.17589 11.1791C9.07961 11.2041 8.97736 11.1898 8.89163 11.1394C8.8059 11.089 8.74371 11.0065 8.71874 10.9103C8.69378 10.814 8.70808 10.7117 8.7585 10.626C9.4035 9.53026 10.3845 7.44976 10.6658 6.41701C10.7803 6.01489 10.7795 5.58795 10.6635 5.18626ZM16.0313 11.76C15.8573 12.0495 15.54 12.5663 15.3608 12.8273C15.1238 13.1123 14.8643 13.386 14.6018 13.6455C14.3018 13.9425 13.9905 14.229 13.6958 14.5005L13.671 14.523C13.3665 14.8035 13.0823 15.0668 12.8355 15.3165C12.7656 15.3873 12.6704 15.4275 12.5709 15.4281C12.4714 15.4287 12.3757 15.3898 12.3049 15.3199C12.2341 15.25 12.1939 15.1548 12.1933 15.0553C12.1927 14.9558 12.2316 14.8601 12.3015 14.7893C12.5633 14.5245 12.861 14.2493 13.1633 13.9718L13.1843 13.9523C13.4813 13.6785 13.7843 13.3995 14.0738 13.1123C14.6723 12.5198 15.1838 11.9243 15.4553 11.3235C15.648 10.899 15.6953 10.4018 15.6428 9.99076C15.6243 9.82142 15.5798 9.65596 15.5108 9.50026C15.4961 9.46898 15.4791 9.43889 15.4598 9.41026C15.4973 9.42601 15.5355 9.44401 15.5745 9.46276C16.0313 9.69001 16.65 10.5173 16.0313 11.76ZM13.5878 5.77951C13.668 5.83351 13.7775 5.96401 13.8473 6.21751C13.926 6.50326 13.9373 6.90526 13.806 7.38976C13.6155 8.09176 13.137 9.03376 12.5903 9.95626C12.1169 10.7504 11.6079 11.5227 11.0648 12.2708C11.0342 12.3104 11.0119 12.3557 10.9991 12.4041C10.9864 12.4525 10.9834 12.503 10.9905 12.5526C10.9975 12.6021 11.0144 12.6497 11.0402 12.6927C11.0659 12.7356 11.1 12.7729 11.1404 12.8025C11.1808 12.832 11.2267 12.8531 11.2754 12.8647C11.3241 12.8762 11.3747 12.8778 11.424 12.8695C11.4734 12.8612 11.5206 12.8431 11.5628 12.8163C11.6051 12.7894 11.6415 12.7544 11.67 12.7133C12.2273 11.9458 12.7496 11.1535 13.2353 10.3388C13.3853 10.0868 13.5323 9.82876 13.6718 9.57076C13.9213 9.01921 14.1572 8.46154 14.379 7.89826C14.8433 6.74101 14.0955 6.02551 13.6643 5.81326C13.6388 5.80051 13.6133 5.79001 13.5878 5.77951ZM5.493 9.70801C5.54775 10.3035 5.57925 10.644 5.67675 10.8825C5.68275 10.9575 5.688 11.025 5.694 11.0873C5.70295 11.1863 5.67219 11.2849 5.60847 11.3612C5.54476 11.4376 5.45331 11.4856 5.35425 11.4945C5.25519 11.5035 5.15664 11.4727 5.08026 11.409C5.00389 11.3453 4.95595 11.2538 4.947 11.1548C4.93575 11.0325 4.9245 10.89 4.91325 10.7295C4.869 10.1348 4.80675 9.28651 4.623 8.22001C4.5465 7.77751 4.34775 7.39351 4.1205 7.14301C3.94425 6.95026 3.79275 6.87601 3.6885 6.85726C4.24125 6.81826 5.1975 7.05301 5.34975 8.31976C5.40452 8.78151 5.45227 9.24406 5.493 9.70726V9.70801Z" fill="#D67D00"/>
<path d="M5.97149 5.66774C5.97115 5.71699 5.96111 5.76568 5.94194 5.81105C5.92278 5.85641 5.89487 5.89756 5.8598 5.93214C5.82474 5.96672 5.78321 5.99405 5.73758 6.01258C5.69195 6.0311 5.64312 6.04046 5.59387 6.04012C5.54462 6.03977 5.49593 6.02973 5.45056 6.01057C5.4052 5.9914 5.36405 5.96349 5.32947 5.92843C5.2949 5.89336 5.26756 5.85183 5.24903 5.8062C5.23051 5.76057 5.22115 5.71174 5.22149 5.66249C5.23274 3.94124 6.5415 1.54649 9.354 1.56449C9.45345 1.56519 9.54856 1.60537 9.61839 1.67618C9.68822 1.747 9.72707 1.84266 9.72637 1.94212C9.72567 2.04157 9.6855 2.13668 9.61468 2.20651C9.54386 2.27635 9.4482 2.31519 9.34875 2.31449C7.07475 2.29949 5.98124 4.22549 5.97149 5.66774Z" fill="#5092FF"/>
<path d="M6.84225 7.48951C6.94158 7.49011 7.03709 7.45128 7.10781 7.38154C7.17854 7.31179 7.21871 7.21684 7.2195 7.11751C7.224 6.43501 7.50525 5.52751 8.10225 4.79626C8.69025 4.07626 9.5775 3.53476 10.8173 3.54301C10.9167 3.54371 11.0124 3.50487 11.0832 3.43503C11.154 3.3652 11.1942 3.27009 11.1949 3.17064C11.1956 3.07118 11.1567 2.97552 11.0869 2.9047C11.0171 2.83389 10.922 2.79371 10.8225 2.79301C9.3315 2.78326 8.2365 3.44701 7.52175 4.32151C6.81675 5.18476 6.4755 6.25876 6.4695 7.11226C6.4692 7.16151 6.47861 7.21033 6.49718 7.25594C6.51575 7.30155 6.54313 7.34306 6.57774 7.37809C6.61236 7.41312 6.65353 7.44099 6.69891 7.46011C6.7443 7.47923 6.793 7.48922 6.84225 7.48951ZM20.3438 13.2075C20.3438 13.1081 20.3833 13.0127 20.4536 12.9423C20.5239 12.872 20.6193 12.8325 20.7188 12.8325C20.8182 12.8325 20.9136 12.872 20.9839 12.9423C21.0542 13.0127 21.0938 13.1081 21.0938 13.2075C21.0938 14.0603 20.76 15.1365 20.0603 16.005C19.3508 16.884 18.2603 17.5545 16.7692 17.5545C16.6698 17.5545 16.5744 17.515 16.5041 17.4447C16.4338 17.3744 16.3942 17.279 16.3942 17.1795C16.3942 17.0801 16.4338 16.9847 16.5041 16.9143C16.5744 16.844 16.6698 16.8045 16.7692 16.8045C18.009 16.8045 18.8932 16.257 19.4767 15.534C20.0685 14.799 20.3438 13.8885 20.3438 13.2068V13.2075Z" fill="#5092FF"/>
<path d="M21.6008 14.6483C21.6008 14.5488 21.6403 14.4534 21.7106 14.3831C21.7809 14.3128 21.8763 14.2733 21.9758 14.2733C22.0752 14.2733 22.1706 14.3128 22.2409 14.3831C22.3112 14.4534 22.3508 14.5488 22.3508 14.6483C22.3508 16.3695 21.0585 18.7733 18.246 18.7733C18.1465 18.7733 18.0512 18.7337 17.9808 18.6634C17.9105 18.5931 17.871 18.4977 17.871 18.3983C17.871 18.2988 17.9105 18.2034 17.9808 18.1331C18.0512 18.0628 18.1465 18.0233 18.246 18.0233C20.52 18.0233 21.6008 16.0913 21.6008 14.6483Z" fill="#5092FF"/>
</svg>
