<svg width="24" height="24" viewBox="0 0 24 24" fill="none" xmlns="http://www.w3.org/2000/svg">
<mask id="mask0_1_616" style="mask-type:luminance" maskUnits="userSpaceOnUse" x="0" y="1" width="24" height="22">
<path fill-rule="evenodd" clip-rule="evenodd" d="M12 21.8C16.216 21.8 19.78 18.46 20.947 14.625C21.209 13.763 23 13.763 23 11.9C23 10.037 21.192 9.93 20.8995 9.024C19.686 5.2675 16.16 2 12 2C7.8375 2 4.31 5.27 3.0985 9.03C2.8075 9.935 1 10.005 1 11.9C1 13.795 2.796 13.795 3.0675 14.671C4.2485 18.482 7.801 21.8 12 21.8Z" fill="#555555" stroke="white" stroke-width="1.5"/>
<path d="M20.8995 9.024C19.686 5.2675 16.16 2 12 2" stroke="white" stroke-width="1.5" stroke-linecap="round"/>
<path d="M9.55 10.8C9.55 11.213 9.438 11.576 9.27 11.828C9.1005 12.082 8.894 12.2 8.7 12.2C8.506 12.2 8.3 12.082 8.13 11.828C7.962 11.576 7.85 11.213 7.85 10.8C7.85 10.3865 7.962 10.024 8.13 9.77199C8.3 9.51799 8.506 9.39999 8.7 9.39999C8.8945 9.39999 9.1005 9.51799 9.27 9.77199C9.438 10.024 9.55 10.387 9.55 10.8ZM16.15 10.8C16.15 11.213 16.038 11.576 15.87 11.828C15.7005 12.082 15.494 12.2 15.3 12.2C15.106 12.2 14.8995 12.082 14.73 11.828C14.562 11.576 14.45 11.213 14.45 10.8C14.45 10.3865 14.562 10.024 14.73 9.77199C14.8995 9.51799 15.106 9.39999 15.3 9.39999C15.494 9.39999 15.7005 9.51799 15.87 9.77199C16.038 10.024 16.15 10.387 16.15 10.8Z" fill="white" stroke="white" stroke-width="1.5"/>
<path fill-rule="evenodd" clip-rule="evenodd" d="M9.249 15.875C10.214 16.525 11.133 16.85 12.0045 16.85C12.8755 16.85 13.739 16.5255 14.5945 15.8775" fill="white"/>
<path d="M9.249 15.875C10.214 16.525 11.133 16.85 12.0045 16.85C12.8755 16.85 13.739 16.5255 14.5945 15.8775M15.864 3.10001C15.998 4.06701 15.7035 4.77351 14.9795 5.21951C14.256 5.66551 13.08 5.87451 11.452 5.84651" stroke="white" stroke-width="1.5" stroke-linecap="round"/>
</mask>
<g mask="url(#mask0_1_616)">
<path d="M0 0H24V24H0V0Z" fill="white"/>
</g>
</svg>
