<svg width="24" height="24" viewBox="0 0 24 24" fill="none" xmlns="http://www.w3.org/2000/svg">
<path d="M11.2998 2.55028C11.1074 2.55065 10.9149 2.55506 10.7227 2.5635C10.3095 2.63696 10.1187 2.81785 10.0151 3.02489C9.90098 3.25318 9.90544 3.56035 10.0327 3.83349C10.1601 4.10677 10.3936 4.33018 10.7197 4.41361C11.0459 4.49705 11.4949 4.45393 12.085 4.07672L12.5567 4.815C11.8152 5.28891 11.0977 5.41393 10.503 5.26172C9.9082 5.10952 9.46687 4.69346 9.23883 4.20408C9.02395 3.74302 8.98448 3.20208 9.19055 2.72171C7.17881 3.04702 5.35725 3.81849 3.95808 4.9043C3.49823 5.4053 3.45323 5.98758 3.6548 6.38527C3.8812 6.8318 4.41464 7.15777 5.48151 6.82027L5.74664 7.65525C4.40695 8.079 3.30272 7.62769 2.87414 6.78221C2.76961 6.5761 2.70576 6.35302 2.68069 6.123C2.45503 6.39075 2.25131 6.66947 2.07131 6.95944L2.07722 6.96225C1.67344 7.88175 1.66425 8.51864 1.82522 8.9325C1.98628 9.34641 2.32373 9.60938 2.84334 9.75432C3.88247 10.044 5.56514 9.69446 6.75005 8.8095C7.25723 8.43075 7.73803 7.51214 7.77989 6.79974C7.80075 6.44349 7.72528 6.16205 7.57622 5.98233C7.42716 5.80261 7.18847 5.66813 6.69436 5.67324L6.68559 4.79733C7.36467 4.7903 7.91606 5.02018 8.25005 5.42283C8.58398 5.82549 8.68411 6.34402 8.65434 6.85102C8.59481 7.86507 8.06395 8.92158 7.27444 9.51118C5.874 10.5571 4.02431 10.9927 2.60897 10.5981C1.95328 10.4153 1.37287 10.0175 1.07381 9.40139C0.626343 11.5317 1.27645 13.5105 2.51372 14.8799C2.67544 15.0589 2.84756 15.2281 3.02794 15.3852C2.89884 15.0155 2.83969 14.6305 2.85356 14.2558C2.87841 13.5843 3.13866 12.9271 3.66075 12.4732C4.08891 12.1007 4.68037 11.8858 5.38776 11.8872C5.43492 11.8872 5.48311 11.8881 5.5313 11.89C5.64145 11.8947 5.75456 11.9043 5.86973 11.9194L5.75536 12.7881C5.02467 12.6921 4.55044 12.8594 4.23492 13.1338C3.91945 13.4082 3.74541 13.8188 3.72806 14.2881C3.69337 15.2267 4.29384 16.3227 5.58853 16.6406L5.58703 16.6494C6.86166 16.8927 8.28403 16.6669 9.71203 15.7954C9.71287 15.7948 9.71405 15.7946 9.71494 15.794C10.0121 15.5854 10.1722 15.3811 10.2511 15.2051C10.3441 14.9973 10.3422 14.8164 10.2759 14.6221C10.1436 14.2335 9.66937 13.834 9.23447 13.7227C8.53125 13.5427 8.08453 13.79 7.87509 14.0845C7.66566 14.3789 7.65291 14.6681 7.97616 14.9194L7.4385 15.6108C6.77348 15.0936 6.73106 14.1817 7.1617 13.5762C7.48477 13.1221 8.05162 12.8109 8.73501 12.791C8.76382 12.79 8.79263 12.7895 8.82145 12.7896C9.0233 12.791 9.23348 12.8188 9.45131 12.8745C10.1781 13.0605 10.8501 13.5906 11.1051 14.3393C11.1731 14.54 11.2029 14.7517 11.193 14.9634C11.9763 14.5632 12.8023 14.2078 13.6437 13.9409C15.0573 13.2949 15.6701 12.1625 15.6462 11.209C15.6221 10.2484 15.0281 9.43992 13.6598 9.30464L13.7463 8.43305C15.465 8.60302 16.4867 9.83218 16.5207 11.187C16.5405 11.9763 16.251 12.7977 15.6682 13.497C16.4215 13.4126 17.1702 13.4269 17.8961 13.5732C17.7484 13.2698 17.6768 12.9414 17.6867 12.6152C17.7185 11.5823 18.597 10.6186 19.9777 10.604C20.0721 10.6031 20.1664 10.6065 20.2604 10.6142L20.1901 11.4872C19.0216 11.3936 18.5823 12.0069 18.5627 12.643C18.5434 13.2721 18.9632 13.9762 20.1667 14.0697C21.4933 14.0814 22.4443 13.362 22.9103 12.2928C23.5343 10.8615 23.2383 8.71547 21.277 6.75277C21.2399 6.7156 21.2031 6.6781 21.1657 6.64144C21.1451 6.81624 21.1003 6.98733 21.0325 7.14975C20.6926 7.96491 19.8966 8.51513 19.0696 8.66883C17.9289 8.8808 16.9935 8.41819 16.5618 7.7123C16.1301 7.0065 16.2434 6.00839 17.0202 5.48293L17.511 6.20949C17.0932 6.49205 17.076 6.87464 17.3088 7.25527C17.5417 7.63599 18.0668 7.96571 18.9099 7.80905C19.4399 7.71052 20.03 7.27796 20.2238 6.81296C20.3208 6.58046 20.3396 6.35068 20.2429 6.0878C20.1644 5.87428 19.9998 5.63011 19.6935 5.37296L19.6848 5.36569C18.4043 4.40068 17.0439 3.70664 15.6652 3.24896C15.6661 3.25046 15.6674 3.25177 15.6682 3.25332C15.9815 3.82613 16.0048 4.47591 15.8118 5.05069C15.4259 6.2003 14.2148 7.10607 12.7165 7.056C12.3908 7.04522 12.0809 7.20225 11.8172 7.50868C11.5534 7.8151 11.3609 8.26397 11.3162 8.7421C11.2269 9.69835 11.6407 10.7524 13.2542 11.2733L12.9844 12.1069C11.0586 11.4851 10.3205 9.97191 10.4428 8.66157C10.5041 8.00649 10.7572 7.39772 11.1533 6.9375C11.5495 6.47728 12.1131 6.15924 12.7456 6.18019C13.8725 6.21778 14.7295 5.52 14.981 4.77099C15.1067 4.39655 15.0904 4.02394 14.8989 3.67388C14.7129 3.33394 14.3444 2.9978 13.6846 2.7525C12.8971 2.61573 12.0991 2.54807 11.2998 2.55028ZM16.0444 14.3599C14.0796 14.5197 11.9491 15.4568 10.1719 16.5425C7.54781 18.1455 4.78641 17.7956 2.82712 16.3418C3.59794 19.1002 6.32925 19.66 9.17869 18.9624C9.46383 18.8553 9.744 18.6559 9.98292 18.3985C10.3137 18.0419 10.5534 17.5796 10.6289 17.1973L11.4887 17.3672C11.3741 17.9477 11.0632 18.5235 10.626 18.9947C10.2064 19.4468 9.65986 19.808 9.0278 19.9029C8.71064 20.6093 8.44964 21.2941 8.3437 21.7735C8.1773 22.5263 9.00961 22.8153 9.38227 22.0561C10.2739 20.2401 11.5324 18.6235 13.1044 17.2296C14.3262 16.4255 15.3735 15.4341 16.0444 14.3599H16.0444Z" fill="white"/>
</svg>
