<svg width="22" height="22" viewBox="0 0 22 22" fill="none" xmlns="http://www.w3.org/2000/svg">
<path d="M11.0409 11.7492C12.6651 11.7492 13.4183 12.9822 13.5771 14.7326C13.6146 15.1516 13.5754 15.7621 13.5217 16.4695C13.3392 18.8194 13.1292 21.7069 14.6939 21.7069C16.017 21.7069 16.697 19.168 17.0892 16.2743C17.468 13.4095 17.0668 11.9839 17.2638 10.7121C17.6399 8.30203 19.744 6.14122 19.0939 3.06809C18.734 1.36344 17.7956 0.561468 16.8654 0.224593C14.7235 -0.555032 13.3402 0.947155 11.0402 0.947155C8.74018 0.947155 7.35727 -0.555032 5.21433 0.224593C4.28518 0.561468 3.34674 1.36344 2.98615 3.06809C2.3368 6.14087 4.43986 8.30203 4.81696 10.7121C5.01393 11.9839 4.61311 13.4095 4.99193 16.2743C5.38415 19.1683 6.06408 21.7069 7.38718 21.7069C8.9509 21.7069 8.74224 18.8194 8.55936 16.4695C8.50574 15.7624 8.46621 15.1516 8.50368 14.7326C8.6618 12.9822 9.42561 11.7492 11.0402 11.7492H11.0409Z" fill="white"/>
</svg>
