<svg width="19" height="23" viewBox="0 0 19 23" fill="none" xmlns="http://www.w3.org/2000/svg">
<path d="M7.57206 0.102022C6.31311 0.281193 5.12333 0.711201 4.16182 1.32755C1.16662 3.24109 -0.431285 6.53782 0.101349 9.71272C0.301952 10.8881 0.599397 11.6334 2.02437 14.5217C2.61234 15.7185 2.90287 16.4854 3.13114 17.4099C3.24873 17.9044 3.2764 18.2412 3.2764 19.2016C3.2764 20.3984 3.19339 21.0005 2.80602 22.5342C2.7576 22.7492 2.72993 22.9355 2.74377 22.957C2.76452 22.9785 3.94738 22.9928 5.36543 23H7.9456L7.90409 20.5059C7.84184 16.6574 8.00093 14.622 8.43673 13.7046C8.8656 12.8088 9.86169 11.9918 11.1898 11.4614C13.1474 10.6659 15.693 9.88473 16.3086 9.88473C16.6199 9.88473 17.028 10.2932 17.6022 11.1819C18.2524 12.1709 18.5153 12.8805 18.3423 13.16C18.2662 13.289 17.9342 13.3965 17.6299 13.3965C17.4777 13.3965 17.0142 13.3176 16.5992 13.2245C14.1574 12.6511 11.4319 12.9091 10.1107 13.8408C9.76485 14.0845 9.2668 14.7152 9.2668 14.9015C9.2668 15.1953 9.43282 15.1237 10.1176 14.5217C11.0169 13.7405 13.1751 13.5183 14.8145 14.0415C15.693 14.321 16.1841 14.837 16.1841 15.482C16.1841 16.3707 15.5201 16.9512 14.6762 16.8007C14.3165 16.7434 14.2334 16.6717 14.2334 16.4424C14.2334 16.1772 14.3649 16.0554 14.8422 15.9335C15.0635 15.869 15.2918 15.7902 15.3402 15.7472C15.4924 15.611 15.4301 15.4103 15.2019 15.2813C15.0151 15.1738 14.8145 15.1523 14.0398 15.1595C12.3173 15.1738 10.671 15.5752 10.2145 16.1055C10.0623 16.2775 10.0415 16.6 10.1591 16.8294C10.2767 17.0444 10.2006 17.1089 10.0277 16.944C9.79252 16.729 9.80636 16.858 10.0623 17.3597C10.422 18.0621 10.3667 18.2771 9.89628 18.0262C9.66109 17.8972 9.49508 17.6464 9.3429 17.1662C9.27372 16.9655 9.19071 16.8079 9.15613 16.815C9.03853 16.8509 9.05237 17.3239 9.19071 18.0907C9.31523 18.7501 9.33598 19.1299 9.33598 20.9216V22.9857L10.4012 22.9928C10.9823 23 11.508 22.9857 11.5634 22.9642C11.6325 22.9355 11.8401 22.398 12.1098 21.581C12.7255 19.6746 12.7531 19.6531 14.4202 19.9111C15.527 20.0903 15.9904 20.0544 16.4332 19.7678C16.8482 19.5026 16.9104 19.2948 16.9104 18.1911V17.2092L17.1595 16.8365C17.4154 16.4567 17.4223 16.3922 17.2563 15.9694C17.2286 15.8834 17.284 15.8045 17.4638 15.6898C17.5953 15.6038 17.7544 15.439 17.8097 15.3243C17.9065 15.138 17.8996 15.0663 17.7889 14.6005C17.6229 13.9555 17.6506 13.8265 17.948 13.8265C18.619 13.8265 19.0894 13.3463 18.9856 12.7586C18.9303 12.4576 18.7781 12.1351 18.2593 11.2464C17.8789 10.5871 17.3601 9.31855 17.3601 9.03904C17.3601 8.96021 17.4085 8.78104 17.4638 8.64487C17.8166 7.76335 17.3255 5.13313 16.5438 3.77143C15.0566 1.15554 11.1898 -0.428322 7.57206 0.102022ZM7.20544 8.4657C7.35071 8.5517 7.55131 8.7452 7.65507 8.90287L7.84875 9.18954L7.86951 11.0601C7.88334 12.2068 7.86259 13.031 7.82108 13.1815C7.73808 13.4825 7.44755 13.6831 7.09477 13.6831C6.54138 13.6831 6.30619 13.4036 6.11942 12.5149C6.0295 12.0921 5.91882 11.8269 5.65596 11.4041C5.46228 11.1031 5.26167 10.7304 5.21325 10.5799C5.08874 10.2144 5.08874 9.44038 5.21325 9.14654C5.5522 8.33669 6.45837 8.02852 7.20544 8.4657Z" fill="white"/>
</svg>
