<svg width="88" height="66" viewBox="0 0 88 66" fill="none" xmlns="http://www.w3.org/2000/svg">
<path fill-rule="evenodd" clip-rule="evenodd" d="M6.24007 0.773266C6.89192 2.10316 7.78905 4.14774 8.54685 6.34076C9.37805 8.74617 10.0228 11.2775 10.0228 13.2301H10.1867C9.15024 14.0181 7.84401 15.318 7.04477 16.8587C6.32567 18.2449 6.01036 19.8439 6.69269 21.4316C6.45922 21.6277 6.31081 21.9218 6.31081 22.2506C6.31081 22.841 6.78946 23.3197 7.37991 23.3197C7.97035 23.3197 8.449 22.841 8.449 22.2506C8.449 21.6601 7.97035 21.1815 7.37991 21.1815C7.26299 21.1815 7.15046 21.2002 7.04517 21.2349C6.44364 19.7966 6.72578 18.3443 7.40064 17.0433C8.20261 15.4974 9.54993 14.1902 10.5732 13.4419C11.482 13.6037 12.8611 14.0461 14.1276 14.8651C15.1711 15.5399 16.1279 16.4632 16.6904 17.6869C16.6463 17.7127 16.6034 17.7419 16.5622 17.7746C16.1001 18.142 16.0233 18.8146 16.3907 19.2768C16.7582 19.7389 17.4307 19.8157 17.8929 19.4483C18.3551 19.0808 18.4319 18.4083 18.0644 17.9461C17.8183 17.6366 17.4354 17.4999 17.0704 17.5538C16.4702 16.2258 15.442 15.2377 14.3453 14.5284C13.1941 13.784 11.9559 13.3389 11.0245 13.1252C11.0024 11.0167 10.3197 8.40239 9.49416 6.01341C8.73454 3.81514 7.83853 1.76448 7.1731 0.399745C7.95585 0.133249 8.70529 0 9.42142 0C9.88915 0 10.2232 0.0334108 10.4237 0.100232C11.6264 0.367503 12.4617 0.868642 12.9294 1.60365C16.6712 7.08277 20.1458 12.2612 23.3531 17.139C24.1549 18.2749 25.5915 20.814 27.6629 24.7563C29.467 28.2308 30.9704 31.0038 32.1731 33.0752C33.3759 35.0797 34.6788 36.8504 36.082 38.3873L39.2893 31.672C42.9643 23.7874 46.0714 17.3728 48.6105 12.4282C51.1496 7.41686 52.7866 4.84435 53.5216 4.71071C54.5907 4.57707 55.3592 4.51025 55.8269 4.51025C58.4996 4.51025 60.6378 5.67958 62.2415 8.01823C64.3797 11.1587 67.5535 15.5019 71.7631 21.0478L74.8702 25.1572C80.4161 32.574 84.5923 40.4252 87.3986 48.7107C87.7996 49.7798 88 50.8489 88 51.918C88 53.9226 87.098 55.7267 85.2939 57.3303C82.9552 59.6021 81.1511 60.7381 79.8816 60.7381C79.0797 60.7381 78.3781 60.2703 77.7768 59.3349C77.1754 58.3326 76.5406 56.6955 75.8725 54.4237C72.3979 43.5991 65.7829 31.7054 56.0273 18.7426L54.7244 21.3485C54.4571 21.8831 53.8557 23.186 52.9203 25.2574C51.918 27.3288 51.2498 28.9658 50.9157 30.1686C49.0448 36.5832 47.4746 42.7639 46.205 48.7107C45.4032 52.5862 43.1982 55.6264 39.59 57.8314C38.3204 58.5665 37.2847 58.934 36.4829 58.934C35.6143 58.934 34.8793 58.533 34.2779 57.7312C33.6097 56.9294 32.9415 55.6933 32.2734 54.0228C31.5384 51.8846 30.0015 48.8444 27.6629 44.9021C25.3242 40.9598 22.9522 37.1845 20.5467 33.5763C18.0744 29.9013 16.5376 27.7965 15.9362 27.262L16.1367 35.18L16.2369 40.6925C16.3705 45.7707 16.4374 49.5459 16.4374 52.0182C16.4374 54.4237 16.404 56.1944 16.3371 57.3303C16.2035 59.5353 15.5687 61.2726 14.4328 62.5422C13.2969 63.7449 11.6598 64.5801 9.52164 65.0478C8.71982 65.2483 8.11845 65.3485 7.71754 65.3485C7.18299 65.3485 6.81549 65.1815 6.61503 64.8474C6.41458 64.5133 6.31435 63.9119 6.31435 63.0433C6.31435 62.1747 6.28095 61.4062 6.21413 60.7381L6.01367 57.5308C6.01367 55.1921 5.88003 53.0873 5.61276 51.2164C4.6773 43.0646 3.14047 30.8368 1.00228 14.533C0.868642 13.3303 0.735004 12.2946 0.601365 11.426C0.400912 10.4905 0.233866 9.7221 0.100227 9.12073C0.0334088 8.78664 0 8.2855 0 7.61732C0 6.88231 0.0668197 6.38117 0.200459 6.1139C0.801826 4.71071 2.10479 3.34093 4.10934 2.00456C4.84357 1.4982 5.55381 1.08776 6.24007 0.773266ZM10.5239 13.2301H10.5239L10.5239 13.2301L10.5239 13.2301Z" fill="#1D3557"/>
</svg>
