<svg width="24" height="24" viewBox="0 0 24 24" fill="none" xmlns="http://www.w3.org/2000/svg">
<path d="M4 20C3.45 20 2.97933 19.8043 2.588 19.413C2.196 19.021 2 18.55 2 18V17C2 16.45 2.196 15.9793 2.588 15.588C2.97933 15.196 3.45 15 4 15C4.55 15 5.02067 15.196 5.412 15.588C5.804 15.9793 6 16.45 6 17V18C6 18.55 5.804 19.021 5.412 19.413C5.02067 19.8043 4.55 20 4 20ZM21.05 20H19.5C19.3333 20 19.2 19.9373 19.1 19.812C19 19.6873 18.9667 19.5417 19 19.375L19.275 18.3C19.3083 18.1667 19.375 18.0627 19.475 17.988C19.575 17.9127 19.6917 17.8917 19.825 17.925L21.175 18.125C21.4083 18.1583 21.6043 18.2627 21.763 18.438C21.921 18.6127 22 18.8167 22 19.05C22 19.3167 21.9083 19.5417 21.725 19.725C21.5417 19.9083 21.3167 20 21.05 20ZM17.35 19.65L14.5 18.7C14.3667 18.65 14.2667 18.5583 14.2 18.425C14.1333 18.2917 14.1333 18.1583 14.2 18.025L14.95 16.3C15.0167 16.1667 15.121 16.0707 15.263 16.012C15.4043 15.954 15.5417 15.9667 15.675 16.05L18.075 17.45C18.175 17.5 18.246 17.575 18.288 17.675C18.3293 17.775 18.3333 17.8833 18.3 18L18 19.3C17.9667 19.4333 17.8833 19.5377 17.75 19.613C17.6167 19.6877 17.4833 19.7 17.35 19.65ZM12.7 17.9L10.75 17.4C10.5167 17.3333 10.3333 17.2127 10.2 17.038C10.0667 16.8627 10 16.6583 10 16.425V15.5C10 15.1167 10.0667 14.7583 10.2 14.425C10.3333 14.0917 10.5583 13.825 10.875 13.625C10.9583 13.575 11.0417 13.5457 11.125 13.537C11.2083 13.529 11.2917 13.55 11.375 13.6L13.925 15C14.0417 15.0667 14.121 15.1623 14.163 15.287C14.2043 15.4123 14.2 15.5333 14.15 15.65L13.275 17.625C13.225 17.7417 13.146 17.825 13.038 17.875C12.9293 17.925 12.8167 17.9333 12.7 17.9ZM7.45 17C7.31667 17 7.20833 16.9623 7.125 16.887C7.04167 16.8123 6.99167 16.7167 6.975 16.6C6.85833 15.85 6.521 15.2293 5.963 14.738C5.40433 14.246 4.75 14 4 14H3.5C3.36667 14 3.25 13.95 3.15 13.85C3.05 13.75 3 13.6333 3 13.5C3 13.3667 3.05 13.25 3.15 13.15C3.25 13.05 3.36667 13 3.5 13H4.4C4.73333 13 5.05 12.9583 5.35 12.875C5.65 12.7917 5.94167 12.6583 6.225 12.475C6.30833 12.425 6.4 12.4 6.5 12.4C6.6 12.4 6.69167 12.425 6.775 12.475C7.10833 12.675 7.46667 12.8123 7.85 12.887C8.23333 12.9623 8.61667 13 9 13C9.2 13 9.34167 13.104 9.425 13.312C9.50833 13.5207 9.48333 13.725 9.35 13.925C9.2 14.1583 9.104 14.4083 9.062 14.675C9.02067 14.9417 9 15.2167 9 15.5V16.5C9 16.6333 8.95 16.75 8.85 16.85C8.75 16.95 8.63333 17 8.5 17H7.45ZM4.45 12C3.75 12 3.16667 11.7707 2.7 11.312C2.23333 10.854 2 10.2833 2 9.6C2 9.28333 2.05833 8.975 2.175 8.675C2.29167 8.375 2.46667 8.10833 2.7 7.875L4 6.575V4H9V6.575L10.3 7.875C10.5333 8.10833 10.7083 8.37067 10.825 8.662C10.9417 8.954 11 9.25833 11 9.575C11 10.2583 10.7667 10.8333 10.3 11.3C9.83333 11.7667 9.25 12 8.55 12C8.23333 12 7.93333 11.9333 7.65 11.8C7.36667 11.6667 7.10833 11.5 6.875 11.3C6.80833 11.25 6.75 11.204 6.7 11.162C6.65 11.1207 6.58333 11.1 6.5 11.1C6.38333 11.1 6.25833 11.1667 6.125 11.3C5.89167 11.5 5.62933 11.6623 5.338 11.787C5.046 11.9123 4.75 11.9833 4.45 12Z" fill="white"/>
</svg>
