<svg width="18" height="24" viewBox="0 0 18 24" fill="none" xmlns="http://www.w3.org/2000/svg">
<g clip-path="url(#clip0_1_702)">
<path d="M15.75 3H12C12 1.34531 10.6547 0 9 0C7.34531 0 6 1.34531 6 3H2.25C1.00781 3 0 4.00781 0 5.25V21.75C0 22.9922 1.00781 24 2.25 24H15.75C16.9922 24 18 22.9922 18 21.75V5.25C18 4.00781 16.9922 3 15.75 3ZM9 1.875C9.62344 1.875 10.125 2.37656 10.125 3C10.125 3.62344 9.62344 4.125 9 4.125C8.37656 4.125 7.875 3.62344 7.875 3C7.875 2.37656 8.37656 1.875 9 1.875ZM13.5 16.125C13.5 16.3312 13.3313 16.5 13.125 16.5H10.5V19.125C10.5 19.3312 10.3313 19.5 10.125 19.5H7.875C7.66875 19.5 7.5 19.3312 7.5 19.125V16.5H4.875C4.66875 16.5 4.5 16.3312 4.5 16.125V13.875C4.5 13.6687 4.66875 13.5 4.875 13.5H7.5V10.875C7.5 10.6687 7.66875 10.5 7.875 10.5H10.125C10.3313 10.5 10.5 10.6687 10.5 10.875V13.5H13.125C13.3313 13.5 13.5 13.6687 13.5 13.875V16.125ZM13.5 7.125C13.5 7.33125 13.3313 7.5 13.125 7.5H4.875C4.66875 7.5 4.5 7.33125 4.5 7.125V6.375C4.5 6.16875 4.66875 6 4.875 6H13.125C13.3313 6 13.5 6.16875 13.5 6.375V7.125Z" fill="white"/>
</g>
<defs>
<clipPath id="clip0_1_702">
<rect width="18" height="24" fill="white"/>
</clipPath>
</defs>
</svg>
