<svg width="20" height="20" viewBox="0 0 20 20" fill="none" xmlns="http://www.w3.org/2000/svg">
<g clip-path="url(#clip0_1_604)">
<path d="M1.84375 11.25C3.3775 13.55 5.97375 16.0887 10 18.75C14.0263 16.0887 16.6225 13.55 18.1562 11.25H15C14.8752 11.25 14.7532 11.2126 14.6499 11.1426C14.5465 11.0727 14.4664 10.9734 14.42 10.8575L12.5988 6.30499L10.6013 13.2962C10.5655 13.4216 10.4915 13.5327 10.3895 13.6139C10.2875 13.6951 10.1627 13.7424 10.0325 13.7492C9.90233 13.7559 9.77328 13.7218 9.66345 13.6516C9.55361 13.5813 9.46849 13.4785 9.42 13.3575L7.36125 8.20999L5.52 10.9725C5.46284 11.0579 5.38547 11.128 5.29477 11.1764C5.20406 11.2248 5.10281 11.2501 5 11.25H1.84375Z" fill="white"/>
<path d="M1.09995 10.0001C-3.0338 2.10007 5.51245 -2.49993 9.7787 1.42882C9.8537 1.49757 9.92745 1.56882 9.9987 1.64257C10.0692 1.56889 10.1426 1.498 10.2187 1.43007C14.4874 -2.49993 23.0324 2.10007 18.8999 10.0001H15.4212L13.0787 4.14257C13.0302 4.02156 12.9451 3.91873 12.8353 3.8485C12.7254 3.77826 12.5964 3.74413 12.4662 3.75088C12.336 3.75763 12.2112 3.80492 12.1092 3.88614C12.0072 3.96736 11.9332 4.07844 11.8974 4.20382L9.9012 11.1951L8.07995 6.64257C8.03753 6.53697 7.96708 6.44494 7.87621 6.37644C7.78533 6.30793 7.67747 6.26553 7.56427 6.25383C7.45106 6.24212 7.33681 6.26155 7.23384 6.31001C7.13086 6.35847 7.04308 6.43413 6.97995 6.52882L4.66495 10.0001H1.09995Z" fill="white"/>
</g>
<defs>
<clipPath id="clip0_1_604">
<rect width="20" height="20" fill="white"/>
</clipPath>
</defs>
</svg>
